PathFileType	4	(X/Y/Z)	E:\Marcel_BSc\Ayumi_22_01_2025\22-01-2025\conv_dl_2.trc
DataRate	CameraRate	NumFrames	NumMarkers	Units	OrigDataRate	OrigDataStartFrame	OrigNumFrames
200.0	200.0	6	48	mm	200.0	1736	2314	
Frame#	Time	FHD			LBHD			RBHD			RBAR			LBAR			RSACR			LSACR			LASI			USACR			LTHI2			C7			CLAV			T10			RSHO			LSHO			LTHI1			LTHI3			LTIB1			LTIB2			LTIB3			LMMAL			LLMAL			LHEE			LMT1			LMT5			LMT3			RTHI1			RTHI2			RTHI3			RTIB1			RTIB3			RTIB2			RLMAL			RMMAL			RHEE			RMT5			RMT1			RMT3			LDUPA			LMUPA			LUUPA			LRAD			RUL			RRAD			RUFIN			RMUPA			RDUPA			RUUPA			
		X1	Y1	Z1	X2	Y2	Z2	X3	Y3	Z3	X4	Y4	Z4	X5	Y5	Z5	X6	Y6	Z6	X7	Y7	Z7	X8	Y8	Z8	X9	Y9	Z9	X10	Y10	Z10	X11	Y11	Z11	X12	Y12	Z12	X13	Y13	Z13	X14	Y14	Z14	X15	Y15	Z15	X16	Y16	Z16	X17	Y17	Z17	X18	Y18	Z18	X19	Y19	Z19	X20	Y20	Z20	X21	Y21	Z21	X22	Y22	Z22	X23	Y23	Z23	X24	Y24	Z24	X25	Y25	Z25	X26	Y26	Z26	X27	Y27	Z27	X28	Y28	Z28	X29	Y29	Z29	X30	Y30	Z30	X31	Y31	Z31	X32	Y32	Z32	X33	Y33	Z33	X34	Y34	Z34	X35	Y35	Z35	X36	Y36	Z36	X37	Y37	Z37	X38	Y38	Z38	X39	Y39	Z39	X40	Y40	Z40	X41	Y41	Z41	X42	Y42	Z42	X43	Y43	Z43	X44	Y44	Z44	X45	Y45	Z45	X46	Y46	Z46	X47	Y47	Z47	X48	Y48	Z48	
1736	8.67	-227.89285	873.83655	-552.35577	-195.04541	901.89807	-505.06998	-197.89818	869.29218	-632.68835	219.78659	241.83559	-1729.306	206.01999	308.78406	491.9884	483.57288	873.58826	-660.81171	478.58377	875.39221	-587.91376				470.04721	878.60114	-624.88403	303.47794	538.42743	-413.82388	26.093668	947.59607	-598.09723	56.003922	795.43231	-607.32513	293.56619	923.43079	-621.95538	13.435826	806.35278	-746.5199	34.750374	820.62195	-435.23535	365.82761	562.3526	-406.78729	338.60577	503.42834	-424.59067	253.76361	234.40619	-419.3631	318.39816	229.44069	-420.26306	281.04877	173.66615	-426.02664	281.45657	76.131462	-515.55353	303.03156	70.09745	-439.60297	342.4205	35.673588	-487.56042	145.09859	45.412487	-469.44492	174.63783	27.148319	-394.63541	147.56403	43.167919	-434.60025	378.92673	556.3446	-840.83667	316.62253	535.82074	-840.48975	350.51407	499.98935	-824.21301	268.1102	268.8501	-832.55835	291.46091	209.73936	-817.74805	318.29968	268.86197	-827.23376	310.63596	72.388382	-784.04962	271.84341	84.627083	-716.35565	349.38745	32.72934	-730.5437	178.80423	30.30341	-821.29529	149.17763	42.883209	-761.73395	157.1084	39.650017	-792.0838	204.58708	689.45709	-374.8942	158.43089	672.19543	-383.49924	136.66493	729.80786	-387.53671	237.75333	359.81433	-335.10217	171.60411	348.63943	-904.71417	170.24606	339.80203	-842.60278	170.40779	266.47849	-845.75189	89.141869	738.49457	-832.88318	112.02833	683.33405	-851.1405	131.22762	759.84271	-847.8208
1737	8.675	-227.79492	871.69141	-552.36798	-195.2206	900.0777	-505.07742	-197.96083	867.38947	-632.70227	220.19106	240.59479	-1729.4479	206.02065	307.63452	492.02225	483.51749	873.20551	-660.69092	478.55182	874.92706	-587.82666				469.99271	878.18585	-624.76373	303.07895	538.20233	-414.13504	25.835257	946.30463	-598.05103	56.062122	794.26154	-607.2854	293.40726	922.63702	-621.86664	13.380448	805.12756	-746.4231	34.762714	819.32825	-435.25943	365.53799	563.47296	-403.81647	338.28406	503.25345	-424.77475	253.61893	234.29039	-419.47455	318.28851	229.4115	-420.34802	281.01395	173.57373	-426.1254	281.46249	76.087807	-515.60858	302.97278	70.125267	-439.61908	342.41855	35.674534	-487.5676	145.09642	45.419346	-469.44641	174.64503	27.155474	-394.65448	147.5737	43.159466	-434.61932	378.92578	556.5564	-840.94843	316.74319	535.71021	-840.73047	350.60675	499.91116	-824.44507	268.10132	268.77484	-832.72424	291.4939	209.70358	-817.91077	318.32571	268.80209	-827.36621	310.64615	72.394531	-784.07861	271.83087	84.662239	-716.40967	349.00046	32.26437	-730.44934	178.80353	30.306206	-821.31805	149.16768	42.906052	-761.76245	157.1143	39.640221	-792.11194	204.59439	688.29193	-374.78506	158.45039	670.88165	-383.48453	136.6347	728.55438	-387.48877	237.8528	358.6055	-335.05798	171.60222	347.20956	-904.69989	170.4485	338.68301	-842.56171	170.6192	265.31598	-845.69092	89.045723	737.37024	-832.76764	111.98416	682.17316	-851.11591	131.15587	758.70294	-847.79681
1738	8.68	-228.05785	869.98224	-552.4245	-195.31953	898.29858	-505.09268	-198.00868	865.53284	-632.7301	220.32025	239.56451	-1729.295	206.00928	306.4852	492.05045	483.42419	872.8407	-660.6156	478.49417	874.50781	-587.71729				469.9498	877.71222	-624.67413	302.75143	537.97021	-414.41711	25.574858	945.01062	-597.98401	56.142857	792.99353	-607.24762	293.18845	921.91962	-621.8031	13.449734	803.74329	-746.3642	34.822014	817.97107	-435.27679	365.32086	564.5434	-400.88651	337.93332	503.07764	-424.93088	253.43683	234.16827	-419.65091	318.1199	229.38535	-420.4671	280.88095	173.53534	-426.25464	281.42606	76.099213	-515.64362	302.93143	70.137184	-439.63364	342.41251	35.666489	-487.56787	145.06148	45.603386	-469.14447	174.64053	27.166111	-394.6687	147.57294	43.160797	-434.62018	379.25375	556.15082	-841.16632	316.87555	535.65796	-841.0022	350.74445	499.81076	-824.71411	268.12085	268.73175	-832.89539	291.52878	209.62338	-818.0481	318.3714	268.74512	-827.52197	310.66458	72.383751	-784.12201	271.82291	84.688591	-716.46704	349.24307	32.299568	-730.64288	178.81184	30.293518	-821.32397	149.17181	42.913967	-761.7901	157.10748	39.649685	-792.14642	204.54785	687.12	-374.6701	158.38235	669.73273	-383.4476	136.55402	727.29175	-387.48239	237.96379	357.4729	-335.02795	172.02983	346.16364	-905.28491	170.61801	337.67847	-842.01447	170.7541	264.10449	-845.77338	88.994759	736.1983	-832.6897	111.9588	680.96796	-851.06812	131.06824	757.50055	-847.74896
1739	8.685	-228.13393	867.9906	-552.49664	-195.55379	896.49042	-505.19693	-198.03242	863.67584	-632.74976	220.70883	238.65477	-1729.3373	206.05029	305.37888	492.05139	483.36185	872.47607	-660.45673	478.41245	874.14722	-587.55908				469.86984	877.29401	-624.58624	302.43188	537.7995	-414.66751	25.348049	943.71466	-597.93945	56.214622	791.71729	-607.229	292.98462	921.26447	-621.68323	13.401171	802.47119	-746.3161	34.854679	816.60724	-435.31998	365.01379	564.28906	-401.11038	337.50705	502.77185	-425.17767	253.32791	234.09315	-419.81683	318.03671	229.34204	-420.60211	280.8165	173.46587	-426.38474	281.40659	76.067673	-515.67987	302.91318	70.1026	-439.68909	342.39996	35.676403	-487.55139	145.05594	45.588623	-469.1813	174.62099	27.21122	-394.68161	147.56252	43.160053	-434.63641	379.42694	556.06525	-841.41602	317.02612	535.67291	-841.27148	350.86505	499.71146	-824.98694	268.20255	269.14258	-832.97485	291.56311	209.55698	-818.20453	318.40576	268.67542	-827.70526	310.70831	72.403168	-784.15045	271.80826	84.658646	-716.526	349.24142	32.325085	-730.66064	178.79959	30.291115	-821.34979	149.17114	42.943798	-761.80743	157.12544	39.658348	-792.16498	204.47333	685.93817	-374.59888	158.43687	668.50757	-383.39267	136.47548	726.05573	-387.44507	238.06517	356.34128	-335.00674	171.88922	344.87241	-904.6911	170.78043	336.52536	-841.97632	170.96399	262.99106	-845.67383	88.999802	734.94788	-832.64288	111.9118	679.84802	-850.99579	131.01697	756.34698	-847.67511
1740	8.69	-228.14763	866.03235	-552.57367	-195.69563	894.54425	-505.26083	-198.00438	861.74274	-632.85651	221.06525	237.49123	-1729.124	206.0489	304.28262	492.10538	483.29941	872.09955	-660.28864	478.39194	873.71521	-587.45184				469.77594	876.94537	-624.39661	302.04181	537.60468	-414.95596	25.123367	942.39758	-597.8714	56.281799	790.62018	-607.13837	292.81036	920.53741	-621.58545	13.425995	801.19934	-746.24298	34.903198	815.36566	-435.29855	364.70081	563.99664	-401.24066	337.24738	502.46417	-425.35355	253.23969	234.00742	-419.94135	317.95987	229.27193	-420.71683	280.70447	173.43675	-426.52588	281.40784	76.068161	-515.73425	302.86288	70.150482	-439.70493	342.38116	35.679428	-487.56033	145.05641	45.572971	-469.18298	174.63863	27.189213	-394.70792	147.5688	43.154579	-434.64484	380.04227	555.74646	-841.51923	317.22079	535.64307	-841.57104	351.02505	499.66763	-825.29486	268.15979	269.12234	-833.14471	291.59579	209.46776	-818.34235	318.46948	268.60648	-827.85706	310.69537	72.403526	-784.22003	271.81299	84.699471	-716.60284	349.25848	32.334743	-730.69128	178.80237	30.301624	-821.38428	149.16905	42.978512	-761.86127	157.12335	39.670547	-792.18854	204.44438	684.81226	-374.48602	158.34033	667.30981	-383.40286	136.39551	724.83868	-387.43561	238.16646	355.23279	-334.95865	172.01051	343.70279	-904.66125	170.99818	335.42413	-841.93982	171.02975	261.87384	-845.69965	88.941269	733.81146	-832.54266	111.92805	678.70667	-850.92688	130.96967	755.19501	-847.62744
1741	8.695	-228.04729	863.87323	-552.6319	-195.93124	892.7713	-505.34634	-198.009	859.84229	-632.92041	221.34143	236.24878	-1729.0862	206.11658	303.14655	492.09219	483.24216	871.71484	-660.17786	478.38492	873.30536	-587.30383				469.73071	876.51361	-624.27966	301.6983	537.43591	-415.23013	24.879114	941.12744	-597.78485	56.367516	789.46936	-607.10956	292.604	919.87708	-621.48828	14.712432	799.01056	-745.74493	34.961662	814.03986	-435.32297	364.39865	563.78351	-401.45502	336.89865	502.30939	-425.56293	253.17764	233.95366	-420.05295	317.92557	229.24057	-420.80933	280.68335	173.38013	-426.61145	281.39178	76.033394	-515.78595	302.82388	70.169174	-439.72632	342.40128	35.67157	-487.58551	145.03001	45.553375	-469.20663	174.57533	27.334629	-394.67908	147.54228	43.173702	-434.66589	380.24438	555.65668	-841.81201	317.35977	535.76843	-841.85382	351.14215	499.64056	-825.54309	268.27075	268.73016	-833.47668	291.65659	209.35233	-818.48669	318.54059	268.56421	-828.00751	310.72089	72.380325	-784.27667	271.78845	84.701332	-716.66492	349.26547	32.346752	-730.69446	178.8167	30.289791	-821.39856	149.17175	42.99284	-761.88452	157.12654	39.666306	-792.22144	204.32716	683.67462	-374.43451	158.23895	666.17664	-383.39017	136.30263	723.71918	-387.42609	238.2549	354.14523	-334.93781	172.11441	342.69141	-904.53119	171.12122	334.13806	-842.44562	171.28667	260.76276	-845.63806	88.90596	732.6955	-832.45483	111.96977	677.55804	-850.92053	130.95003	754.07928	-847.63629
